<svg width="14" height="17" viewBox="0 0 14 17" fill="none" xmlns="http://www.w3.org/2000/svg">
<g clip-path="url(#clip0)">
<path fill-rule="evenodd" clip-rule="evenodd" d="M13.9215 12.6369C13.2941 14.4069 11.5294 17.3294 9.80387 17.0001C8.58818 16.7531 8.07838 16.0945 6.74505 16.3827C5.80387 16.5885 5.49014 16.9589 4.70583 17.0413C3.56858 17.1647 2.70583 16.2592 2.03916 15.2713C1.56858 14.5715 1.17642 13.8306 0.862694 13.0074C0.0783805 11.2374 -0.235345 9.05578 0.196028 7.32697C0.588184 5.84513 1.56858 4.61026 2.98034 4.15748C4.90191 3.54005 6.07838 4.40445 6.74505 4.61026C7.3725 4.81607 7.80387 4.52794 8.58818 4.2398C9.80387 3.78702 12.0392 3.66353 13.5294 5.63932C13.5294 5.68048 13.5294 5.68048 13.4901 5.68048C10.9411 7.57394 11.0196 10.8669 13.9215 12.4722C13.9999 12.4311 13.9999 12.4311 13.9215 12.6369Z" fill="white"/>
<path fill-rule="evenodd" clip-rule="evenodd" d="M10.2353 0C10.2353 0.0411622 10.2745 0.452785 10.2353 0.699758C10.1176 2.55206 8.58819 4.11622 6.90192 4.11622H6.8627C6.82349 3.91041 6.82349 3.7046 6.82349 3.53995C6.90192 1.89346 8.3529 0.329298 9.84309 0.0411622C9.92153 0.0411622 10.2353 0 10.2353 0Z" fill="white"/>
</g>
<defs>
<clipPath id="clip0">
<rect width="14" height="17" fill="white"/>
</clipPath>
</defs>
</svg>
