<svg width="25" height="26" viewBox="0 0 25 26" fill="none" xmlns="http://www.w3.org/2000/svg">
<g clip-path="url(#clip0)">
<path d="M12.5 0.693237C5.59638 0.693237 0 6.32304 0 13.2679C0 19.5445 4.57179 24.7478 10.5497 25.6932V16.9002H7.37705V13.2679H10.5497V10.4956C10.5497 7.34664 12.4152 5.60509 15.2699 5.60509C16.6408 5.60509 18.0681 5.85389 18.0681 5.85389V8.94601H16.4924C14.9378 8.94601 14.4573 9.91274 14.4573 10.9079V13.2679H17.9268L17.3756 16.9002H14.4644V25.6861C20.4423 24.7407 25.0141 19.5374 25.0141 13.2608C25 6.32304 19.4036 0.693237 12.5 0.693237Z" fill="#414E52"/>
</g>
<defs>
<clipPath id="clip0">
<rect width="25" height="25" fill="white" transform="translate(0 0.693237)"/>
</clipPath>
</defs>
</svg>
