<svg width="10" height="21" viewBox="0 0 10 21" fill="none" xmlns="http://www.w3.org/2000/svg">
<path fill-rule="evenodd" clip-rule="evenodd" d="M2.18905 10.5727V20.709C2.18905 20.8545 2.28856 20.9515 2.43781 20.9515H6.31841C6.46766 20.9515 6.56716 20.8545 6.56716 20.709V10.4273H9.35323C9.50249 10.4273 9.60199 10.3303 9.60199 10.1848L9.85075 7.08083C9.85075 6.93534 9.75124 6.78984 9.60199 6.78984H6.51741V4.55889C6.51741 4.0254 6.96517 3.63741 7.46269 3.63741H9.60199C9.75124 3.63741 9.85075 3.54042 9.85075 3.39492V0.242494C9.85075 0.0969977 9.75124 0 9.60199 0H5.97015C3.93035 0 2.18905 1.69746 2.18905 3.78291V6.78984H0.248756C0.0995025 6.78984 0 6.88684 0 7.03233V10.1363C0 10.2818 0.0995025 10.3788 0.248756 10.3788H2.18905V10.5727Z" fill="white"/>
</svg>
