<svg width="14" height="14" viewBox="0 0 14 14" fill="none" xmlns="http://www.w3.org/2000/svg">
<path d="M7.13292 5.6087C7.13292 5.65217 7.13292 5.69565 7.13292 5.73913C7.13292 6.6087 7.13292 8.43478 7.13292 8.43478C7.13292 8.43478 10.7658 8.43478 10.943 8.43478C10.943 8.69565 10.5886 9.82609 9.52533 10.5217C8.90508 10.9565 8.19621 11.1304 7.44305 11.1739C6.9114 11.2174 6.37976 11.1739 5.89242 11C4.29748 10.4783 3.10128 9.08696 2.96837 7.34783C2.92406 6.91304 2.96837 6.47826 3.05697 6.08696C3.54432 4.04348 5.49368 2.52174 7.75318 2.86957C8.77216 3 9.34811 3.43478 9.83545 3.86957C10.5443 3.17391 11.2089 2.52174 11.9177 1.82609C11.7405 1.69565 11.3418 1.30435 10.6329 0.913043C9.56963 0.304348 8.46204 0.0434783 7.26583 0C7.04432 0 6.8228 0 6.60128 0C6.20254 0 5.80381 0.0869565 5.40508 0.173913C3.89875 0.565217 2.61394 1.3913 1.59495 2.6087C0.620265 3.78261 0.0886199 5.08696 1.23605e-05 6.6087C-0.0442914 7.26087 1.23568e-05 7.86957 0.132924 8.47826C0.531658 10.2174 1.46204 11.6087 2.92406 12.6522C4.07596 13.4783 5.31647 13.913 6.73419 13.9565C7.53166 14 8.28482 13.913 9.08229 13.7391C10.5 13.3913 11.6962 12.6522 12.5823 11.4783C13.8671 9.78261 14.1772 7.6087 13.8228 5.56522C11.6076 5.6087 9.34811 5.6087 7.13292 5.6087Z" fill="#414E52"/>
</svg>
