<svg width="25" height="26" viewBox="0 0 25 26" fill="none" xmlns="http://www.w3.org/2000/svg">
<g clip-path="url(#clip0)">
<path d="M15.4256 7.22942H9.57484C7.90724 7.22942 6.55054 8.58611 6.55054 10.2537V16.1045C6.55054 17.7721 7.90724 19.1288 9.57484 19.1288H15.4256C17.0932 19.1288 18.4499 17.7721 18.4499 16.1045V10.2537C18.4499 8.58611 17.0932 7.22942 15.4256 7.22942ZM12.5638 16.7828C10.5712 16.7828 8.95302 15.1647 8.95302 13.172C8.95302 11.1794 10.5712 9.56124 12.5638 9.56124C14.5565 9.56124 16.1746 11.1794 16.1746 13.172C16.1676 15.1647 14.5494 16.7828 12.5638 16.7828ZM16.3795 10.1831C15.9061 10.1831 15.5175 9.80149 15.5175 9.32099C15.5175 8.84756 15.899 8.45892 16.3795 8.45892C16.853 8.45892 17.2416 8.8405 17.2416 9.32099C17.2416 9.80149 16.853 10.1831 16.3795 10.1831Z" fill="#414E52"/>
<path d="M12.5636 10.8614C11.2917 10.8614 10.2529 11.9001 10.2529 13.172C10.2529 14.4439 11.2917 15.4827 12.5636 15.4827C13.8355 15.4827 14.8742 14.4439 14.8742 13.172C14.8742 11.9001 13.8355 10.8614 12.5636 10.8614Z" fill="#414E52"/>
<path d="M12.5 0.693237C5.59638 0.693237 0 6.28962 0 13.1932C0 20.0969 5.59638 25.6932 12.5 25.6932C19.4036 25.6932 25 20.0969 25 13.1932C25 6.28962 19.4036 0.693237 12.5 0.693237ZM19.8276 16.1045C19.8276 18.5352 17.8491 20.5067 15.4254 20.5067H9.57462C7.14387 20.5067 5.17241 18.5352 5.17241 16.1045V10.2537C5.17241 7.82297 7.14387 5.85152 9.57462 5.85152H15.4254C17.8561 5.85152 19.8276 7.82297 19.8276 10.2537V16.1045Z" fill="#414E52"/>
</g>
<defs>
<clipPath id="clip0">
<rect width="25" height="25" fill="white" transform="translate(0 0.693237)"/>
</clipPath>
</defs>
</svg>
