<svg width="24" height="26" viewBox="0 0 24 26" fill="none" xmlns="http://www.w3.org/2000/svg">
<g clip-path="url(#clip0)">
<path d="M13.954 13.1084L10.7929 11.3136C10.664 11.2359 10.2163 11.3348 10.2163 11.4903V14.988C10.2163 15.1435 10.6572 15.2424 10.7861 15.1647L14.0897 13.4617C14.2254 13.384 14.0897 13.1861 13.954 13.1084Z" fill="#414E52"/>
<path d="M12 0.693237C5.37253 0.693237 0 6.28962 0 13.1932C0 20.0969 5.37253 25.6932 12 25.6932C18.6275 25.6932 24 20.0969 24 13.1932C24 6.28962 18.6275 0.693237 12 0.693237ZM18.424 14.981C18.424 16.6415 17.1351 17.9841 15.541 17.9841H8.17411C6.57999 17.9841 5.29112 16.6415 5.29112 14.981V11.4126C5.29112 9.75203 6.57999 8.40946 8.17411 8.40946H15.541C17.1351 8.40946 18.424 9.75203 18.424 11.4126V14.981Z" fill="#414E52"/>
</g>
<defs>
<clipPath id="clip0">
<rect width="24" height="25" fill="white" transform="translate(0 0.693237)"/>
</clipPath>
</defs>
</svg>
